Patient4_TMGait_0pt7_02_left_17_EMG.mot
version=1
nRows=34
nColumns=33
inDegrees=no
endheader
time	1LAddLong	2LGlutMax	3LGlutMed	4LIliopsoas	5LSemiMemb	6LBicFemLong	7LRecFem	8LVastMed	9LVastLat	10LGasMed	11LTibAnt	12lTibPost	13LPeroneusLong	14LSol	15LExtDigLong	16LFlexDigLong	17RAddLong	18RGlutMax	19RGlutMed	20RIliopsoas	21RSemiMemb	22RBicFemLong	23RRecFem	24RVastMed	25RVastLat	26RGasMed	27RTibAnt	28RTibPost	29RPeroneusLong	30RSol	31RExtDigLong	32RFlexDigLong
19.595	-0.00473	1.432	-0.10117	0.014191	-0.069275	0.13321	1.4967	0.034943	-0.79453	-0.090027	-0.006561	-0.015869	0.30853	-0.12451	0.18372	0.25848	0.046234	0.26642	-0.11307	0.070953	-0.025024	-0.086823	1.021	-0.031433	-0.065155	0.009155	-0.093536	0.005493	0.25925	-0.018005	0.002594	-0.005951
19.596	-0.007019	1.414	-0.2533	0.029297	-0.095215	0.17456	1.4731	0.042572	-0.58411	-0.045013	0.04303	-0.014343	-0.38086	0.23483	0.082855	0.13733	0.064545	0.23239	-0.11292	0.056763	-0.048523	-0.042572	1.068	-0.032959	-0.048828	0.004883	-0.014648	0.016632	0.36102	-0.20309	0.002441	-0.005341
19.597	-0.002136	1.2527	-0.002594	0.016022	-0.1561	0.084839	1.3342	0.049744	-0.42557	0.023956	0.046082	-0.005646	-0.64423	0.32044	0.00351	-0.081635	0.097961	0.18219	-0.001068	0.053558	-0.043335	-0.007935	1.0623	-0.059357	-0.048676	0.006409	0.071411	-0.018311	0.011292	-0.18631	0.004272	-0.008087
19.598	-0.007629	1.2526	-0.014038	-0.00351	-0.1915	0.020905	1.1662	0.046234	-0.30243	0.005951	0.03891	0.00351	-0.093842	0.25971	0.006866	-0.027008	0.15701	0.17456	0.005341	0.070496	-0.031891	0.01709	1.1024	-0.037384	-0.039978	0.00885	0.045166	-0.033569	-0.34546	-0.21225	-0.001831	-0.003815
19.599	0.002899	1.1577	0.024719	-0.019989	-0.18143	-0.13214	0.95413	0.030518	-0.15167	-0.028534	0.016937	0.016479	0.457	0.17349	0.066986	0.042419	0.15869	0.1944	-0.26032	-0.000763	-0.016937	0.018921	1.1024	-0.044708	-0.03891	0.007324	0.018158	-0.037079	-0.1738	-0.20203	0.002441	-0.000458
19.6	0.008545	1.127	-0.028992	0.010986	-0.11032	-0.2507	0.8165	0.007172	-0.15625	-0.053253	0.016022	0.032196	0.53253	0.28336	0.17242	0.053406	0.14481	0.1918	-0.27145	-0.092468	0.000916	0.006256	1.1572	-0.037384	-0.069122	0.002747	0.096283	-0.043793	-0.087738	-0.103	0.003052	-0.010986
19.601	0.003204	1.0869	-0.029297	0.015411	-0.043182	-0.19943	0.68008	-0.016174	-0.17746	-0.10498	0.003967	0.046539	-0.15427	0.15762	0.026855	0.045471	0.050201	0.16724	-0.2356	-0.085297	0.022888	-0.041046	1.0832	-0.048218	-0.06073	-0.004578	0.19623	-0.042419	0.12787	-0.018463	0.001984	-0.012665
19.602	0	1.0361	-0.052032	0.030975	0.02182	-0.15289	0.51498	-0.04303	-0.24567	-0.13397	0.015106	0.032654	-0.76706	-0.19898	-0.15656	0.03891	0.020599	0.14862	-0.16464	-0.06134	0.040283	-0.054169	1.1528	-0.06958	-0.050964	-0.007172	0.30853	-0.014954	0.007935	0.093079	0.001831	-0.019073
19.603	-0.008087	0.9874	-0.036011	0.008545	0.02243	-0.098267	0.30624	-0.012207	-0.23483	-0.03479	0.013123	0.046997	0.15686	-0.15762	-0.087433	0.020447	-0.011902	0.14984	-0.22522	-0.005798	0.066528	-0.064392	1.1174	-0.081787	-0.067139	-0.005341	0.44846	0.00824	-0.12741	0.25192	0.003815	-0.011902
19.604	-0.005493	0.89996	-0.080719	0.020294	-0.066071	-0.001984	0.094757	0.017853	-0.20462	-0.050964	0.056305	0.055847	0.18372	-0.25665	-0.017548	0.038605	-0.042725	0.13428	-0.35553	0.013733	0.046844	-0.16251	1.0254	-0.062714	-0.09201	-0.006866	0.1442	-0.15656	-0.14481	0.29831	-0.001373	-0.018768
19.605	-0.009766	0.84061	-0.041046	-0.011902	-0.18692	0.076141	-0.093842	0.041809	-0.17517	0.018768	0.06424	0.069733	0.068817	-0.38269	-0.017395	0.018311	-0.081024	0.15762	-0.32593	0.1088	0.03891	-0.20996	0.88882	-0.068665	-0.098572	-0.000153	-0.15106	-0.050812	-0.088654	0.21103	0.001373	-0.014648
19.606	0.010529	0.7515	-0.1329	0.022736	-0.20798	0.10544	-0.28198	0.062714	-0.16235	0.19379	0.035248	0.0914	-0.12238	-0.34042	0.033875	-0.021515	-0.066528	0.2066	-0.1915	0.13489	0.013885	-0.15595	0.85281	-0.14175	-0.096893	-0.001678	-0.76538	0.045166	0.16159	0.15243	-0.000458	-0.010071
19.607	0.018311	0.63461	-0.21469	0.016174	-0.12665	0.12177	-0.3273	0.049438	-0.11459	0.33081	-0.001373	0.10635	0.09201	-0.2562	-0.004425	-0.04364	-0.04364	0.24948	-0.25559	0.19714	0.016327	-0.12787	0.88318	-0.13672	-0.078583	0.018463	-0.53863	0.003357	0.12253	0.02655	0.001373	-0.010071
19.608	0.029297	0.61142	-0.27435	0.025177	-0.064392	0.31525	-0.41916	0.050201	-0.10117	0.13458	-0.021973	0.12314	0.19928	-0.31677	-0.08606	-0.027924	-0.035095	0.28519	-0.33173	0.11887	0.010834	-0.12207	0.81711	-0.20081	-0.092926	-0.000153	0.12268	-0.015259	0.016632	-0.34073	0.000305	-0.012665
19.609	0.028381	0.51407	-0.34943	0.014648	-0.020142	0.73288	-0.52567	0.049744	-0.10956	-0.11017	0.004425	0.121	0.081787	-0.27268	-0.084839	0.090485	0.014343	0.32822	-0.28915	-0.040283	0.004425	-0.12558	0.9169	-0.18982	-0.086517	0.002899	0.35797	-0.021667	-0.014191	-0.32684	-0.001678	-0.008545
19.61	0.047302	0.4007	-0.23422	0.033569	-0.028229	0.91766	-0.63767	0.043945	-0.068817	-0.11185	0.011749	0.11765	0.32608	0.23819	0.088654	0.045929	0.025635	0.38544	-0.24597	-0.050964	-0.05188	-0.073242	0.87341	-0.21271	-0.093689	0.00351	0.4184	-0.017548	-0.046692	-0.29297	0.002747	-0.009613
19.611	0.028076	0.3157	-0.13687	0.009918	0.006714	1.0597	-0.6279	0.036316	-0.031281	-0.22461	0.025482	0.11856	0.28336	0.29633	0.083923	-0.015564	0.018616	0.47928	-0.23132	0.037079	-0.0737	-0.076294	0.87936	-0.21454	-0.080261	0.009918	-0.066376	-0.016785	0.050507	-0.33463	-0.001526	-0.002289
19.612	0.030823	0.27237	-0.041046	0.015411	-0.009918	0.94208	-0.73059	0.012512	-0.025482	-0.25452	0.031891	0.094299	0.088043	0.30518	0.060272	-0.009155	0.002747	0.55649	-0.088654	0.096588	-0.036621	-0.065002	0.9375	-0.090485	-0.02121	0.015717	-0.68649	-0.013123	0.19821	-0.3305	-0.002136	0.00412
19.613	0.033569	0.28275	0.015869	0.006866	-0.076141	0.58609	-0.83344	0.02121	0.015411	-0.20294	-0.003662	0.10666	-0.10315	0.16327	-0.05249	0.005951	-0.084686	0.52841	-0.069885	0.12268	-0.029144	-0.047455	0.75974	-0.06546	-0.003357	0.015564	-0.76981	-0.013733	0.2449	-0.27939	-0.007019	0.007782
19.614	0.040436	0.34698	-0.007629	0.014954	-0.11902	0.13748	-0.82016	0.0383	0.005188	-0.015411	-0.017395	0.10239	-0.1091	0.20569	-0.19592	-0.005341	-0.078735	0.5043	-0.3772	0.086517	-0.003967	-0.029907	0.62103	-0.037079	-0.018768	0.002899	-0.83588	-0.00946	0.10086	-0.12466	0.001373	0.00473
19.615	0.050507	0.35919	-0.001221	-0.005646	-0.013123	-0.55206	-0.79865	0.024109	-0.012665	0.14099	-0.010529	0.076141	-0.049591	0.21133	-0.1506	-0.006561	-0.054474	0.60715	-0.76904	0.020752	0.014343	-0.010529	0.73318	-0.019531	-0.004883	0.001831	-0.61172	-0.010986	0.031891	-0.011444	0.000458	-0.009308
19.616	0.049286	0.35461	0.046082	0.00473	0.046844	-1.3811	-0.85022	0.010376	0.076599	0.1265	-0.011902	0.056763	-0.088654	0.15106	-0.056152	-0.012054	-0.08728	0.66452	-0.57419	-0.04425	0.03952	0.033722	0.82779	-0.052032	0.010986	-0.001373	-0.28122	-0.011749	-0.023956	0.025787	-0.001068	-0.008392
19.617	0.054169	0.43579	0.014648	0.014801	0.055237	-1.2903	-0.75562	-0.031586	0.075226	0.10742	-0.03891	0.040741	0.1268	0.12833	-0.010986	0.005646	-0.070038	0.62134	-0.47012	-0.11017	0.042419	0.020752	0.93597	-0.022736	0.01358	0.001678	-0.003357	-0.009003	-0.020905	0.077667	0.004425	-0.006561
19.618	0.0354	0.46875	0.10559	0.013733	-0.01236	-0.89462	-0.64865	-0.045013	0.007629	0.11185	-0.050812	0.029602	0.37491	0.12344	0.13382	0.01297	-0.11887	0.67261	-0.66345	-0.10422	0.062103	0.022125	0.97183	0.008087	0.00946	0.000153	0.024567	-0.00824	-0.040283	0.064545	0.000763	-0.007782
19.619	0.018158	0.42618	0.042572	0.02243	-0.005341	-0.27268	-0.63355	-0.036621	-0.064392	0.003967	-0.037842	0.004425	0.5278	0.11551	0.29221	0.011597	-0.14069	0.70023	-0.87204	-0.059204	0.075684	0.004425	0.87494	0.06897	0.014648	0.000458	-0.044556	-0.005341	-0.023346	-0.027771	-0.003662	-0.012054
19.62	0.007782	0.29816	0.083313	0.022888	-0.042877	0.16678	-0.62531	-0.029297	0.061493	-0.077209	-0.079041	-0.012665	0.079651	0.10574	0.14114	0.000153	-0.11475	0.75028	-0.73456	-0.062866	0.072784	-0.004883	0.81284	0.005341	0.019379	0.002594	-0.14694	-0.007019	-0.044098	-0.16541	-0.003052	-0.018005
19.621	-0.004578	0.20462	0.055084	0.013885	-0.071259	0.31204	-0.69351	-0.029755	0.2034	-0.25711	-0.10529	-0.021667	-0.11231	0.092621	0.041962	0.001373	-0.090637	0.75668	-0.7663	0.049591	0.074768	-0.009613	0.77545	-0.016937	-0.009003	0.001068	-0.034332	-0.007477	-0.080261	-0.18875	-0.00412	-0.016022
19.622	0.005341	0.078888	0.14297	0.005493	-0.068207	0.22888	-0.58426	-0.023651	0.24612	-0.18082	-0.10635	-0.028839	-0.05127	0.000763	-0.059967	0.023346	-0.053253	0.75104	-0.7283	0.21484	0.088348	-0.002289	0.77606	0.04715	-0.027924	0.000153	-0.012665	-0.003204	-0.033722	0.027924	-0.002136	-0.007629
19.623	0.004272	0.029602	0.072632	-0.027466	-0.050964	0.13351	-0.5159	-0.019531	0.26321	-0.09491	0.14893	-0.053558	-0.26779	-0.22446	-0.11246	-0.000458	0.00351	0.83527	-0.75211	0.19241	0.10178	0.033417	0.86014	-0.001221	-0.016632	0.003357	0.061951	-0.007477	-0.035553	0.16296	0.002594	-0.011444
19.624	0.017395	0.068359	-0.015717	0.008698	-0.040436	0.025024	-0.53238	-0.011597	0.29251	-0.001068	0.26489	-0.060272	-0.33936	-0.15549	-0.014801	-0.000305	0.09964	0.76797	-0.8754	0.11902	0.10895	0.12436	0.79422	-0.058899	-0.014496	-0.00061	0.21088	-0.011292	-0.012512	0.2063	-0.002899	-0.012054
19.625	0.026398	0.19318	-0.050812	0.013123	-0.019684	-0.004425	-0.53345	-0.011597	0.25711	0.018921	0.20905	-0.067902	-0.49103	-0.04364	0.046997	0.003815	0.20538	0.77377	-1.1571	0.10864	0.10864	0.073547	0.79727	-0.080261	-0.035553	-0.005188	0.18753	-0.001831	-0.034027	0.1767	0.000916	-0.006561
19.626	0.012054	0.36118	-0.1355	0.027313	-0.026703	-0.17487	-0.57571	-0.006256	0.17059	0.005188	0.17731	-0.0737	-0.15243	0.14771	0.15335	-0.00061	0.29037	0.70892	-1.1208	0.093536	0.097198	0.032501	0.97885	-0.14313	0.003052	-0.002747	0.086365	-0.001373	0.023651	0.11978	-0.000458	-0.009613
19.627	0.00412	0.62531	-0.18845	0.063324	-0.031281	-0.35416	-0.64011	-0.002136	0.059052	-0.01358	0.17425	-0.080719	0.22385	0.1384	0.063934	0.014648	0.31296	0.71838	-0.74783	0.073242	0.093842	0.027618	0.79697	-0.1384	-0.006561	-0.013123	0.037689	0.007172	0.026703	0.050049	0.002136	-0.011139
19.628	0.01297	0.90103	-0.10529	0.046539	-0.012207	-0.071716	-0.68542	-0.009308	0.1329	-0.020142	0.12604	-0.083618	0.17471	0.23239	-0.21408	0.013123	0.27069	0.7225	-0.90622	0.010986	0.084381	0.011292	0.78033	-0.12924	-0.005035	-0.010223	0.004578	0.000916	-0.067596	-0.12131	-0.007629	-0.009155
